HIERARCHY
ROOT mixamorig:Hips
{
	OFFSET -0.000008 104.274872 1.554316
	CHANNELS 6 Xposition Yposition Zposition Xrotation Yrotation Zrotation
	JOINT mixamorig:Spine
	{
		OFFSET -0.000005 10.181595 0.131519
		CHANNELS 6 Xposition Yposition Zposition Xrotation Yrotation Zrotation
		JOINT mixamorig:Spine1
		{
			OFFSET -0.000000 9.893959 -1.470707
			CHANNELS 6 Xposition Yposition Zposition Xrotation Yrotation Zrotation
			JOINT mixamorig:Spine2
			{
				OFFSET -0.000000 9.220757 -1.370641
				CHANNELS 6 Xposition Yposition Zposition Xrotation Yrotation Zrotation
				JOINT mixamorig:Neck
				{
					OFFSET 0.000001 16.740417 -2.049036
					CHANNELS 6 Xposition Yposition Zposition Xrotation Yrotation Zrotation
					JOINT mixamorig:Head
					{
						OFFSET 0.000000 9.617874 1.685006
						CHANNELS 6 Xposition Yposition Zposition Xrotation Yrotation Zrotation
						JOINT mixamorig:HeadTop_End
						{
							OFFSET 0.000002 22.037354 7.501101
							CHANNELS 6 Xposition Yposition Zposition Xrotation Yrotation Zrotation
							End Site
							{
								OFFSET 0.000168 2310.654297 -282.823242
							}
						}
					}
				}
				JOINT mixamorig:RightShoulder
				{
					OFFSET -4.569970 11.014908 -2.160885
					CHANNELS 6 Xposition Yposition Zposition Xrotation Yrotation Zrotation
					JOINT mixamorig:RightArm
					{
						OFFSET -10.592851 -0.524811 -2.232101
						CHANNELS 6 Xposition Yposition Zposition Xrotation Yrotation Zrotation
						JOINT mixamorig:RightForeArm
						{
							OFFSET -27.841511 0.000031 -0.000004
							CHANNELS 6 Xposition Yposition Zposition Xrotation Yrotation Zrotation
							JOINT mixamorig:RightHand
							{
								OFFSET -28.328831 -0.000015 0.000015
								CHANNELS 6 Xposition Yposition Zposition Xrotation Yrotation Zrotation
								JOINT mixamorig:RightHandThumb1
								{
									OFFSET -2.464806 -1.573990 2.681852
									CHANNELS 6 Xposition Yposition Zposition Xrotation Yrotation Zrotation
									JOINT mixamorig:RightHandThumb2
									{
										OFFSET -3.215179 -1.872803 1.924282
										CHANNELS 6 Xposition Yposition Zposition Xrotation Yrotation Zrotation
										JOINT mixamorig:RightHandThumb3
										{
											OFFSET -2.654831 -1.527969 1.512609
											CHANNELS 6 Xposition Yposition Zposition Xrotation Yrotation Zrotation
											JOINT mixamorig:RightHandThumb4
											{
												OFFSET -2.018814 -1.152008 1.108052
												CHANNELS 6 Xposition Yposition Zposition Xrotation Yrotation Zrotation
												End Site
												{
													OFFSET -188.809540 -114.533607 132.431396
												}
											}
										}
									}
								}
								JOINT mixamorig:RightHandIndex1
								{
									OFFSET -9.108284 -0.517868 2.259835
									CHANNELS 6 Xposition Yposition Zposition Xrotation Yrotation Zrotation
									JOINT mixamorig:RightHandIndex2
									{
										OFFSET -3.699989 0.000000 0.001215
										CHANNELS 6 Xposition Yposition Zposition Xrotation Yrotation Zrotation
										JOINT mixamorig:RightHandIndex3
										{
											OFFSET -2.850006 0.000031 -0.000522
											CHANNELS 6 Xposition Yposition Zposition Xrotation Yrotation Zrotation
											JOINT mixamorig:RightHandIndex4
											{
												OFFSET -2.772186 -0.000015 -0.000020
												CHANNELS 6 Xposition Yposition Zposition Xrotation Yrotation Zrotation
												End Site
												{
													OFFSET -277.218445 0.000000 -0.050231
												}
											}
										}
									}
								}
								JOINT mixamorig:RightHandMiddle1
								{
									OFFSET -9.532516 -0.000031 -0.000023
									CHANNELS 6 Xposition Yposition Zposition Xrotation Yrotation Zrotation
									JOINT mixamorig:RightHandMiddle2
									{
										OFFSET -3.700005 -0.000015 0.003713
										CHANNELS 6 Xposition Yposition Zposition Xrotation Yrotation Zrotation
										JOINT mixamorig:RightHandMiddle3
										{
											OFFSET -2.949974 0.000015 -0.002054
											CHANNELS 6 Xposition Yposition Zposition Xrotation Yrotation Zrotation
											JOINT mixamorig:RightHandMiddle4
											{
												OFFSET -2.946640 0.000000 -0.000156
												CHANNELS 6 Xposition Yposition Zposition Xrotation Yrotation Zrotation
												End Site
												{
													OFFSET -294.664337 0.000000 -0.113670
												}
											}
										}
									}
								}
								JOINT mixamorig:RightHandRing1
								{
									OFFSET -9.103600 -0.043076 -1.865134
									CHANNELS 6 Xposition Yposition Zposition Xrotation Yrotation Zrotation
									JOINT mixamorig:RightHandRing2
									{
										OFFSET -3.379288 0.000000 -0.001055
										CHANNELS 6 Xposition Yposition Zposition Xrotation Yrotation Zrotation
										JOINT mixamorig:RightHandRing3
										{
											OFFSET -2.889687 -0.000015 0.000379
											CHANNELS 6 Xposition Yposition Zposition Xrotation Yrotation Zrotation
											JOINT mixamorig:RightHandRing4
											{
												OFFSET -2.638809 -0.000015 0.000941
												CHANNELS 6 Xposition Yposition Zposition Xrotation Yrotation Zrotation
												End Site
												{
													OFFSET -263.880371 0.000000 0.516020
												}
											}
										}
									}
								}
								JOINT mixamorig:RightHandPinky1
								{
									OFFSET -8.076683 -0.486710 -3.806280
									CHANNELS 6 Xposition Yposition Zposition Xrotation Yrotation Zrotation
									JOINT mixamorig:RightHandPinky2
									{
										OFFSET -3.600014 -0.000015 -0.003747
										CHANNELS 6 Xposition Yposition Zposition Xrotation Yrotation Zrotation
										JOINT mixamorig:RightHandPinky3
										{
											OFFSET -2.099983 0.000000 -0.005739
											CHANNELS 6 Xposition Yposition Zposition Xrotation Yrotation Zrotation
											JOINT mixamorig:RightHandPinky4
											{
												OFFSET -2.115768 -0.000031 -0.003680
												CHANNELS 6 Xposition Yposition Zposition Xrotation Yrotation Zrotation
												End Site
												{
													OFFSET -211.577087 0.000000 -0.350686
												}
											}
										}
									}
								}
							}
						}
					}
				}
				JOINT mixamorig:LeftShoulder
				{
					OFFSET 4.570447 11.014725 -2.160855
					CHANNELS 6 Xposition Yposition Zposition Xrotation Yrotation Zrotation
					JOINT mixamorig:LeftArm
					{
						OFFSET 10.592371 -0.524597 -2.232119
						CHANNELS 6 Xposition Yposition Zposition Xrotation Yrotation Zrotation
						JOINT mixamorig:LeftForeArm
						{
							OFFSET 27.841532 -0.000031 0.000026
							CHANNELS 6 Xposition Yposition Zposition Xrotation Yrotation Zrotation
							JOINT mixamorig:LeftHand
							{
								OFFSET 28.328846 -0.000061 0.000022
								CHANNELS 6 Xposition Yposition Zposition Xrotation Yrotation Zrotation
								JOINT mixamorig:LeftHandThumb1
								{
									OFFSET 2.466141 -1.576172 2.681732
									CHANNELS 6 Xposition Yposition Zposition Xrotation Yrotation Zrotation
									JOINT mixamorig:LeftHandThumb2
									{
										OFFSET 3.217812 -1.872070 1.916482
										CHANNELS 6 Xposition Yposition Zposition Xrotation Yrotation Zrotation
										JOINT mixamorig:LeftHandThumb3
										{
											OFFSET 2.656029 -1.528778 1.514513
											CHANNELS 6 Xposition Yposition Zposition Xrotation Yrotation Zrotation
											JOINT mixamorig:LeftHandThumb4
											{
												OFFSET 2.020889 -1.154053 1.115139
												CHANNELS 6 Xposition Yposition Zposition Xrotation Yrotation Zrotation
												End Site
												{
													OFFSET 190.885437 -115.081749 130.048782
												}
											}
										}
									}
								}
								JOINT mixamorig:LeftHandIndex1
								{
									OFFSET 9.109314 -0.518021 2.259871
									CHANNELS 6 Xposition Yposition Zposition Xrotation Yrotation Zrotation
									JOINT mixamorig:LeftHandIndex2
									{
										OFFSET 3.699989 0.000000 -0.000322
										CHANNELS 6 Xposition Yposition Zposition Xrotation Yrotation Zrotation
										JOINT mixamorig:LeftHandIndex3
										{
											OFFSET 2.850006 0.000000 0.000352
											CHANNELS 6 Xposition Yposition Zposition Xrotation Yrotation Zrotation
											JOINT mixamorig:LeftHandIndex4
											{
												OFFSET 2.774864 -0.000031 -0.000027
												CHANNELS 6 Xposition Yposition Zposition Xrotation Yrotation Zrotation
												End Site
												{
													OFFSET 277.486267 0.000000 -0.009857
												}
											}
										}
									}
								}
								JOINT mixamorig:LeftHandMiddle1
								{
									OFFSET 9.533394 0.000061 0.000044
									CHANNELS 6 Xposition Yposition Zposition Xrotation Yrotation Zrotation
									JOINT mixamorig:LeftHandMiddle2
									{
										OFFSET 3.699989 -0.000015 -0.000231
										CHANNELS 6 Xposition Yposition Zposition Xrotation Yrotation Zrotation
										JOINT mixamorig:LeftHandMiddle3
										{
											OFFSET 2.949997 -0.000015 -0.000059
											CHANNELS 6 Xposition Yposition Zposition Xrotation Yrotation Zrotation
											JOINT mixamorig:LeftHandMiddle4
											{
												OFFSET 2.952896 0.000031 0.000063
												CHANNELS 6 Xposition Yposition Zposition Xrotation Yrotation Zrotation
												End Site
												{
													OFFSET 295.289337 0.000000 0.022810
												}
											}
										}
									}
								}
								JOINT mixamorig:LeftHandRing1
								{
									OFFSET 9.104523 -0.042999 -1.865074
									CHANNELS 6 Xposition Yposition Zposition Xrotation Yrotation Zrotation
									JOINT mixamorig:LeftHandRing2
									{
										OFFSET 3.150009 -0.000031 0.000043
										CHANNELS 6 Xposition Yposition Zposition Xrotation Yrotation Zrotation
										JOINT mixamorig:LeftHandRing3
										{
											OFFSET 2.949982 -0.000015 0.000040
											CHANNELS 6 Xposition Yposition Zposition Xrotation Yrotation Zrotation
											JOINT mixamorig:LeftHandRing4
											{
												OFFSET 2.644348 0.000000 0.000057
												CHANNELS 6 Xposition Yposition Zposition Xrotation Yrotation Zrotation
												End Site
												{
													OFFSET 264.434631 0.000000 0.012105
												}
											}
										}
									}
								}
								JOINT mixamorig:LeftHandPinky1
								{
									OFFSET 8.077789 -0.486847 -3.806259
									CHANNELS 6 Xposition Yposition Zposition Xrotation Yrotation Zrotation
									JOINT mixamorig:LeftHandPinky2
									{
										OFFSET 3.599953 0.000031 0.014727
										CHANNELS 6 Xposition Yposition Zposition Xrotation Yrotation Zrotation
										JOINT mixamorig:LeftHandPinky3
										{
											OFFSET 2.100021 0.000015 0.007705
											CHANNELS 6 Xposition Yposition Zposition Xrotation Yrotation Zrotation
											JOINT mixamorig:LeftHandPinky4
											{
												OFFSET 2.125504 0.000031 0.007517
												CHANNELS 6 Xposition Yposition Zposition Xrotation Yrotation Zrotation
												End Site
												{
													OFFSET 212.550781 0.000000 0.625752
												}
											}
										}
									}
								}
							}
						}
					}
				}
			}
		}
	}
	JOINT mixamorig:RightUpLeg
	{
		OFFSET -8.207787 -6.751648 -1.599560
		CHANNELS 6 Xposition Yposition Zposition Xrotation Yrotation Zrotation
		JOINT mixamorig:RightLeg
		{
			OFFSET -0.000002 -44.370117 0.345942
			CHANNELS 6 Xposition Yposition Zposition Xrotation Yrotation Zrotation
			JOINT mixamorig:RightFoot
			{
				OFFSET 0.000003 -44.423679 -3.043532
				CHANNELS 6 Xposition Yposition Zposition Xrotation Yrotation Zrotation
				JOINT mixamorig:RightToeBase
				{
					OFFSET -0.000002 -8.728671 10.710558
					CHANNELS 6 Xposition Yposition Zposition Xrotation Yrotation Zrotation
					JOINT mixamorig:RightToe_End
					{
						OFFSET -0.000001 -0.000679 9.278119
						CHANNELS 6 Xposition Yposition Zposition Xrotation Yrotation Zrotation
						End Site
						{
							OFFSET 0.000000 -0.067690 927.812134
						}
					}
				}
			}
		}
	}
	JOINT mixamorig:LeftUpLeg
	{
		OFFSET 8.207793 -6.751686 -1.599556
		CHANNELS 6 Xposition Yposition Zposition Xrotation Yrotation Zrotation
		JOINT mixamorig:LeftLeg
		{
			OFFSET -0.000004 -44.370014 0.346954
			CHANNELS 6 Xposition Yposition Zposition Xrotation Yrotation Zrotation
			JOINT mixamorig:LeftFoot
			{
				OFFSET -0.000001 -44.423672 -3.044401
				CHANNELS 6 Xposition Yposition Zposition Xrotation Yrotation Zrotation
				JOINT mixamorig:LeftToeBase
				{
					OFFSET -0.000002 -8.728669 10.710558
					CHANNELS 6 Xposition Yposition Zposition Xrotation Yrotation Zrotation
					JOINT mixamorig:LeftToe_End
					{
						OFFSET -0.000003 -0.000679 9.278133
						CHANNELS 6 Xposition Yposition Zposition Xrotation Yrotation Zrotation
						End Site
						{
							OFFSET 0.000000 -0.068021 927.813477
						}
					}
				}
			}
		}
	}
}
MOTION
Frames: 3
Frame Time: 0.033333
0.000006 104.270477 1.554256 0.000010 0.000003 -0.000113 -0.000005 10.181587 0.131522 0.000001 -0.000003 0.000084 -0.000000 9.893967 -1.470711 0.000001 0.000000 -0.000000 -0.000000 9.220802 -1.370642 0.000000 -0.000000 -0.000000 0.000001 16.740433 -2.049030 0.000000 -0.000000 -0.000000 0.000000 9.617859 1.685014 0.000000 0.000000 0.000000 0.000002 22.037384 7.501101 0.000000 -0.000000 0.000000 -4.569968 11.014880 -2.160881 0.000008 0.000001 -0.000038 -10.592871 -0.524775 -2.231903 75.665068 31.545864 -24.744505 -27.841528 0.000032 0.000551 -54.269627 107.748768 70.148686 -28.328835 0.000021 0.000026 -0.000323 -0.000043 0.000006 -2.464458 -1.573997 2.682391 -18.948343 -149.922283 44.440991 -3.215240 -1.872524 1.924637 152.671790 34.665116 25.624049 -2.654944 -1.527887 1.513087 150.739406 25.990075 -38.565953 -2.018824 -1.152020 1.108054 -0.000003 -0.000005 0.000004 -9.108382 -0.517557 2.260152 101.467303 16.911823 -20.670355 -3.700068 0.000327 0.001498 97.781671 12.007549 -13.717864 -2.850070 0.000378 -0.000266 97.371395 8.277219 -9.411197 -2.772166 -0.000000 -0.000020 -0.000000 -0.000000 -0.000002 -9.532583 0.000278 0.000283 102.491087 15.587045 -19.528257 -3.700055 0.000341 0.004006 102.360917 10.224003 -12.573911 -2.950041 0.000343 -0.001779 103.179898 8.850189 -11.140404 -2.946625 0.000002 -0.000153 0.000000 0.000002 -0.000000 -9.103689 -0.042757 -1.864818 103.299105 16.564481 -20.794415 -3.379337 0.000314 -0.000760 104.589765 9.381287 -12.139907 -2.889753 0.000349 0.000693 108.185238 6.122299 -8.510381 -2.638825 -0.000028 0.000946 0.000001 -0.000001 0.000000 -8.076759 -0.486388 -3.805963 96.182464 19.793914 -21.830763 -3.600058 0.000270 -0.003460 99.888832 10.240152 -11.735056 -2.100002 0.000328 -0.005451 102.494563 5.524021 -6.606225 -2.115757 -0.000041 -0.003677 -0.000001 -0.000000 -0.000002 4.570446 11.014691 -2.160851 -0.000018 0.000010 -0.000021 10.592386 -0.524483 -2.232345 74.539699 -7.297733 5.556575 27.841824 0.000057 -0.000209 93.662022 -71.268455 74.772717 28.328846 -0.000029 0.000025 0.000021 -0.000089 0.000000 2.466267 -1.576038 2.681824 -170.929432 6.932506 71.809945 3.217876 -1.871879 1.916421 164.354077 -21.707337 40.819068 2.656104 -1.528690 1.514488 135.337125 -29.026084 59.303760 2.020899 -1.154086 1.115151 -0.000000 0.000001 0.000002 9.109388 -0.517886 2.259744 77.937001 -19.534683 15.843537 3.700043 0.000115 -0.000461 76.154130 -17.118600 13.464217 2.850066 0.000160 0.000211 73.278648 -14.007454 10.439995 2.774887 -0.000029 -0.000026 -0.000000 -0.000004 0.000000 9.533465 0.000178 -0.000097 77.264862 -18.245339 14.619175 3.700060 0.000145 -0.000374 79.492276 -14.343250 11.944437 2.950038 0.000143 -0.000190 78.520702 -16.023841 13.127707 2.952881 -0.000044 0.000062 -0.000001 -0.000001 0.000000 9.104591 -0.042880 -1.865211 74.318899 -16.849938 12.811739 3.150048 0.000169 -0.000090 79.186918 -13.264426 10.987761 2.950014 0.000154 -0.000083 80.969509 -13.558883 11.590343 2.644331 0.000013 0.000060 0.000000 -0.000001 0.000001 8.077843 -0.486772 -3.806391 64.206449 -17.857420 11.645908 3.599994 0.000123 0.014576 67.034127 -15.600714 10.723380 2.100038 0.000127 0.007548 69.630971 -14.036099 10.135707 2.125499 -0.000028 0.007518 -0.000000 -0.000002 -0.000001 -8.207786 -6.751667 -1.599560 -0.077001 -0.000003 0.000080 -0.000002 -44.370110 0.345938 0.153719 -0.000000 -0.000000 0.000000 -44.423679 -3.043532 -0.076700 0.000000 -0.000002 -0.000006 -8.728667 10.710559 -0.000009 -0.000000 -0.000000 -0.000001 -0.000679 9.278123 0.000000 -0.000000 -0.000000 8.207792 -6.751710 -1.599556 -0.074518 -0.000003 0.000081 -0.000002 -44.370014 0.346960 0.148822 0.000002 0.000000 -0.000001 -44.423664 -3.044403 -0.074314 0.000000 -0.000002 -0.000004 -8.728671 10.710558 0.000007 -0.000000 -0.000000 0.000000 -0.000680 9.278137 -0.000000 0.000000 -0.000001 
0.000006 104.270477 1.554256 0.000010 0.000003 -0.000113 -0.000005 10.181587 0.131522 0.000001 -0.000003 0.000084 -0.000000 9.893967 -1.470711 0.000001 0.000000 -0.000000 -0.000000 9.220802 -1.370642 0.000000 -0.000000 -0.000000 0.000001 16.740433 -2.049030 0.000000 -0.000000 -0.000000 0.000000 9.617859 1.685014 0.000000 0.000000 0.000000 0.000002 22.037384 7.501101 0.000000 -0.000000 0.000000 -4.569968 11.014880 -2.160881 0.000008 0.000001 -0.000038 -10.592870 -0.524772 -2.231884 76.173350 31.595260 -25.004616 -27.841515 0.000030 0.000545 -51.744861 106.434380 65.942177 -28.328814 0.000008 0.000024 -0.000322 -0.000043 0.000007 -2.464394 -1.573912 2.682359 -32.863640 -148.228123 18.521643 -3.215217 -1.872485 1.924631 146.355764 34.377688 39.769227 -2.654963 -1.527875 1.513074 149.342687 26.987457 -32.467755 -2.018831 -1.152001 1.108060 -0.000002 0.000000 0.000004 -9.108374 -0.517555 2.260133 102.071986 16.659740 -20.581173 -3.700067 0.000316 0.001537 99.407038 13.619836 -16.004795 -2.850066 0.000365 -0.000264 97.434028 10.916697 -12.421469 -2.772168 -0.000017 -0.000022 0.000001 0.000001 -0.000001 -9.532595 0.000273 0.000290 102.130801 16.718993 -20.793546 -3.700069 0.000330 0.004013 102.972014 11.836305 -14.723977 -2.950075 0.000337 -0.001767 104.286204 10.752947 -13.798730 -2.946634 0.000001 -0.000158 0.000000 0.000003 0.000000 -9.103716 -0.042767 -1.864827 102.607637 17.690198 -21.931642 -3.379330 0.000332 -0.000765 103.924928 9.415487 -12.040019 -2.889763 0.000351 0.000693 109.182049 6.897067 -9.754663 -2.638826 -0.000012 0.000938 0.000000 -0.000001 -0.000002 -8.076759 -0.486398 -3.805998 92.574670 20.785411 -21.556837 -3.600058 0.000275 -0.003473 99.281997 9.763745 -11.054118 -2.100015 0.000328 -0.005419 104.080656 5.129132 -6.292368 -2.115768 -0.000028 -0.003675 0.000000 -0.000002 0.000000 4.570446 11.014691 -2.160851 -0.000018 0.000010 -0.000021 10.592381 -0.524490 -2.232320 74.419815 -5.210953 3.957999 27.841824 0.000068 -0.000189 94.436716 -72.415455 76.695217 28.328846 -0.000029 0.000019 0.000017 -0.000089 0.000000 2.466260 -1.575935 2.681778 -170.109427 -8.744138 49.060719 3.217884 -1.871913 1.916456 161.510259 -17.953871 57.756223 2.656099 -1.528704 1.514508 136.793854 -28.379725 64.854046 2.020895 -1.154079 1.115158 -0.000001 0.000003 0.000004 9.109381 -0.517894 2.259745 76.953911 -19.952714 15.906706 3.700030 0.000140 -0.000460 75.479403 -12.767041 9.911227 2.850031 0.000161 0.000192 74.490016 -9.013714 6.857956 2.774881 -0.000031 -0.000030 -0.000002 0.000000 -0.000001 9.533445 0.000175 -0.000078 76.134814 -18.589611 14.601240 3.700029 0.000158 -0.000385 80.165398 -10.117826 8.519025 2.950050 0.000162 -0.000213 80.188251 -9.276938 7.817639 2.952860 -0.000015 0.000068 -0.000000 -0.000003 -0.000001 9.104584 -0.042878 -1.865214 75.916829 -17.572531 13.752305 3.150062 0.000180 -0.000116 81.509360 -11.479341 9.902937 2.950006 0.000173 -0.000090 81.664556 -8.989691 7.774041 2.644313 0.000030 0.000048 -0.000000 0.000000 0.000002 8.077839 -0.486757 -3.806392 68.102027 -19.031764 13.345023 3.600002 0.000147 0.014585 68.107723 -15.581839 10.928061 2.100020 0.000143 0.007572 69.019246 -10.904615 7.841304 2.125504 -0.000014 0.007514 0.000001 -0.000000 0.000003 -8.207786 -6.751667 -1.599560 -0.077001 -0.000003 0.000080 -0.000002 -44.370110 0.345938 0.153719 -0.000000 -0.000000 0.000000 -44.423679 -3.043532 -0.076700 0.000000 -0.000002 -0.000006 -8.728667 10.710559 -0.000009 -0.000000 -0.000000 -0.000001 -0.000679 9.278123 0.000000 -0.000000 -0.000000 8.207792 -6.751710 -1.599556 -0.074518 -0.000003 0.000081 -0.000002 -44.370014 0.346960 0.148822 0.000002 0.000000 -0.000001 -44.423664 -3.044403 -0.074314 0.000000 -0.000002 -0.000004 -8.728671 10.710558 0.000007 -0.000000 -0.000000 0.000000 -0.000680 9.278137 -0.000000 0.000000 -0.000001 
0.000006 104.270477 1.554256 0.000010 0.000003 -0.000113 -0.000005 10.181587 0.131522 0.000001 -0.000003 0.000084 -0.000000 9.893967 -1.470711 0.000001 0.000000 -0.000000 -0.000000 9.220802 -1.370642 0.000000 -0.000000 -0.000000 0.000001 16.740433 -2.049030 0.000000 -0.000000 -0.000000 0.000000 9.617859 1.685014 0.000000 0.000000 0.000000 0.000002 22.037384 7.501101 0.000000 -0.000000 0.000000 -4.569968 11.014880 -2.160881 0.000008 0.000001 -0.000038 -10.592862 -0.524806 -2.231839 76.293766 40.082835 -31.975473 -27.841536 0.000019 0.000558 -50.640696 104.518669 62.871891 -28.328819 0.000009 0.000032 -0.000320 -0.000042 0.000003 -2.464402 -1.573912 2.682346 -35.270581 -149.079274 14.313374 -3.215233 -1.872496 1.924602 146.115368 34.032500 37.609310 -2.654954 -1.527892 1.513076 148.529526 27.312337 -30.638678 -2.018826 -1.151999 1.108068 -0.000003 -0.000003 0.000002 -9.108378 -0.517556 2.260131 100.956500 15.603162 -18.915092 -3.700057 0.000323 0.001521 98.961921 12.579206 -14.669508 -2.850083 0.000376 -0.000262 96.864670 9.954751 -11.216387 -2.772184 0.000000 -0.000017 -0.000000 -0.000004 -0.000001 -9.532585 0.000265 0.000283 101.332202 15.576800 -19.123594 -3.700057 0.000330 0.004025 102.501052 10.994419 -13.559593 -2.950037 0.000349 -0.001763 103.583712 10.113433 -12.818872 -2.946624 0.000002 -0.000155 -0.000000 -0.000001 -0.000000 -9.103687 -0.042752 -1.864814 102.082696 16.888862 -20.752850 -3.379351 0.000329 -0.000770 103.912558 8.989593 -11.495197 -2.889757 0.000343 0.000678 109.484750 6.472648 -9.210464 -2.638811 0.000000 0.000938 -0.000001 -0.000003 0.000001 -8.076760 -0.486399 -3.805989 91.889287 19.923571 -20.418432 -3.600044 0.000278 -0.003474 98.286566 9.035612 -10.026503 -2.100008 0.000324 -0.005438 103.405786 4.439490 -5.347096 -2.115777 -0.000037 -0.003681 -0.000000 0.000001 -0.000003 4.570446 11.014691 -2.160851 -0.000018 0.000010 -0.000021 10.592417 -0.524469 -2.232362 74.141690 -18.603098 14.107727 27.841816 0.000063 -0.000206 94.929473 -74.979529 79.794566 28.328848 -0.000044 0.000014 0.000020 -0.000089 -0.000000 2.466283 -1.575938 2.681778 -171.633884 -4.602332 56.591700 3.217889 -1.871890 1.916450 162.294638 -17.998689 56.450267 2.656098 -1.528711 1.514506 136.702015 -28.419497 64.862953 2.020894 -1.154086 1.115146 0.000006 0.000001 0.000004 9.109366 -0.517890 2.259741 77.109318 -19.651171 15.707552 3.700030 0.000149 -0.000482 75.820468 -12.762033 9.968085 2.850063 0.000178 0.000204 74.509058 -9.000088 6.849927 2.774870 -0.000029 -0.000023 0.000001 0.000003 0.000000 9.533466 0.000179 -0.000084 76.369363 -18.590877 14.663241 3.700026 0.000155 -0.000381 79.878714 -10.234477 8.573915 2.950038 0.000159 -0.000220 79.920686 -9.293342 7.794541 2.952858 -0.000015 0.000063 0.000000 0.000001 -0.000000 9.104585 -0.042878 -1.865240 76.169894 -17.659797 13.883441 3.150039 0.000182 -0.000092 81.307234 -11.678293 10.039161 2.950027 0.000175 -0.000087 81.735562 -8.997945 7.790907 2.644302 0.000030 0.000052 -0.000000 -0.000002 0.000000 8.077843 -0.486760 -3.806410 68.091365 -19.139399 13.416694 3.600006 0.000134 0.014583 68.303142 -15.760866 11.091365 2.100026 0.000154 0.007548 69.726471 -10.899880 7.941486 2.125523 -0.000015 0.007512 -0.000003 0.000001 -0.000002 -8.207786 -6.751667 -1.599560 -0.077001 -0.000003 0.000080 -0.000002 -44.370110 0.345938 0.153719 -0.000000 -0.000000 0.000000 -44.423679 -3.043532 -0.076700 0.000000 -0.000002 -0.000006 -8.728667 10.710559 -0.000009 -0.000000 -0.000000 -0.000001 -0.000679 9.278123 0.000000 -0.000000 -0.000000 8.207792 -6.751710 -1.599556 -0.074518 -0.000003 0.000081 -0.000002 -44.370014 0.346960 0.148822 0.000002 0.000000 -0.000001 -44.423664 -3.044403 -0.074314 0.000000 -0.000002 -0.000004 -8.728671 10.710558 0.000007 -0.000000 -0.000000 0.000000 -0.000680 9.278137 -0.000000 0.000000 -0.000001 
